<?xml version="1.0" encoding="UTF-8" standalone="no"?>
<svg
   xmlns:dc="http://purl.org/dc/elements/1.1/"
   xmlns:cc="http://creativecommons.org/ns#"
   xmlns:rdf="http://www.w3.org/1999/02/22-rdf-syntax-ns#"
   xmlns:svg="http://www.w3.org/2000/svg"
   xmlns="http://www.w3.org/2000/svg"
   id="svg2"
   version="1.1"
   viewBox="0 0 68.755127 19.230219"
   height="19.230219"
   width="68.755127">
  <metadata
     id="metadata134">
    <rdf:RDF>
      <cc:Work
         rdf:about="">
        <dc:format>image/svg+xml</dc:format>
        <dc:type
           rdf:resource="http://purl.org/dc/dcmitype/StillImage" />
        <dc:title>Artboard</dc:title>
      </cc:Work>
    </rdf:RDF>
  </metadata>
  <!-- Generator: Sketch 41.2 (35397) - http://www.bohemiancoding.com/sketch -->
  <title
     id="title4">Artboard</title>
  <desc
     id="desc6">Created with Sketch.</desc>
  <defs
     id="defs8">
    <linearGradient
       id="linearGradient-1"
       y2="0.37952936"
       x2="0.97679883"
       y1="0.68107134"
       x1="0.010927957">
      <stop
         id="stop11"
         offset="0%"
         stop-color="#FFDD55" />
      <stop
         id="stop13"
         offset="100%"
         stop-opacity="0"
         stop-color="#FFDD55" />
    </linearGradient>
    <radialGradient
       gradientUnits="userSpaceOnUse"
       r="264.57971"
       cy="57.021"
       cx="57.388199"
       id="SVGID_1_">
      <stop
         id="stop3272"
         style="stop-color:#9DD5F6"
         offset="0" />
      <stop
         id="stop3274"
         style="stop-color:#98D3F5"
         offset="0.0711" />
      <stop
         id="stop3276"
         style="stop-color:#89CEF3"
         offset="0.1575" />
      <stop
         id="stop3278"
         style="stop-color:#70C6EF"
         offset="0.2516" />
      <stop
         id="stop3280"
         style="stop-color:#4EBBEA"
         offset="0.3514" />
      <stop
         id="stop3282"
         style="stop-color:#23ADE3"
         offset="0.4546" />
      <stop
         id="stop3284"
         style="stop-color:#0DA6E0"
         offset="0.5" />
      <stop
         id="stop3286"
         style="stop-color:#2E77BC"
         offset="1" />
    </radialGradient>
  </defs>
  <g
     transform="translate(-146.95621,-11.91978)"
     style="fill:none;stroke:none"
     id="Page-1">
    <g
       id="Artboard">
      <g
         transform="translate(-82,7)"
         id="icon-group--payment">
        <path
           style="fill:#336699"
           id="path2997"
           d="m 286.31021,16.54 c -0.25764,0.162642 -0.52862,0.303145 -0.81,0.42 -0.34195,0.145129 -0.70859,0.223211 -1.08,0.23 -0.40317,0.02341 -0.8057,-0.05571 -1.17,-0.23 -0.27304,-0.155787 -0.42953,-0.457037 -0.4,-0.77 -0.017,-0.357796 0.0888,-0.71065 0.3,-1 0.23924,-0.267318 0.54185,-0.470202 0.88,-0.59 0.44322,-0.141315 0.89846,-0.241735 1.36,-0.3 0.47,-0.06 1.4,-0.17 1.52,-0.17 0.12,0 0.2,-0.07 0.15,0.25 0,0.14 -0.29,1.24 -0.42,1.74 -0.0683,0.170987 -0.1825,0.31979 -0.33,0.43 v 0 z m 3.65,-7.75 c -1.15877,-0.5143761 -2.42477,-0.7408154 -3.69,-0.66 -0.83724,0.00228 -1.67305,0.069148 -2.5,0.2 -0.61,0.09 -0.68,0.11 -1.06,0.19 -0.47865,0.1169589 -0.83857,0.512476 -0.91,1 l -0.25,1 c -0.14,0.66 0.23,0.64 0.4,0.58 0.40243,-0.144493 0.81317,-0.264709 1.23,-0.36 0.63529,-0.156941 1.2858,-0.244123 1.94,-0.26 0.63407,-0.03024 1.26823,0.05793 1.87,0.26 0.38021,0.156142 0.62615,0.529026 0.62,0.94 0.0202,0.09561 0.0202,0.194392 0,0.29 -0.0525,0.118099 -0.17081,0.193052 -0.3,0.19 -1.18,0.07 -2,0.18 -3,0.33 -0.90327,0.113494 -1.78558,0.355963 -2.62,0.72 -0.7099,0.290957 -1.32337,0.77619 -1.77,1.4 -0.40664,0.641809 -0.6121,1.390537 -0.59,2.15 -0.0345,0.758975 0.2739,1.493277 0.84,2 0.60629,0.515611 1.38481,0.783452 2.18,0.75 0.43313,0.0084 0.86584,-0.03187 1.29,-0.12 0.34199,-0.08607 0.67642,-0.199776 1,-0.34 0.29749,-0.129583 0.58208,-0.286947 0.85,-0.47 l 0.78,-0.52 v 0 l -0.08,0.33 v 0 c -0.0485,0.176997 -0.0147,0.366423 0.0919,0.51576 0.10667,0.149337 0.2749,0.242713 0.45806,0.25424 h 2 c 0.42004,-0.05952 0.76525,-0.361576 0.88,-0.77 l 1.51,-6.5 c 0.0392,-0.174551 0.0659,-0.351663 0.08,-0.53 0.01,-0.166516 0.01,-0.333485 0,-0.5 0.0283,-0.836519 -0.42692,-1.6147666 -1.17,-2 v 0 l -0.08,-0.07 z" />
        <path
           style="fill:#1c3664"
           id="path3009"
           d="m 264.04022,8.28 c -0.53017,0.054196 -1.00769,0.3443864 -1.3,0.79 l -3.25,5.58 c -0.16,0.27 -0.32,0.1 -0.34,0 l -0.92,-5.55 c -0.14634,-0.497191 -0.61215,-0.8310892 -1.13,-0.81 h -1.84 c -0.20015,-0.012334 -0.39358,0.074492 -0.51738,0.2322422 -0.12381,0.1577506 -0.16217,0.3662736 -0.10262,0.5577578 0,0 1.41,8 1.68,9.87 0.12317,0.39734 0.12317,0.82266 0,1.22 l -1.83,3.19 c -0.27,0.43 -0.12,0.79 0.32,0.79 h 2.14 c 0.52663,-0.04913 1.00184,-0.336474 1.29,-0.78 l 8.18,-13.91 c 0,0 0.79,-1.19 0.06,-1.18 h -2.48" />
        <path
           style="fill:#1c3664"
           id="path3013"
           d="m 242.54024,7 c -0.25345,-0.504967 -0.64092,-0.9304886 -1.12,-1.23 -0.55096,-0.3283018 -1.1578,-0.5520525 -1.79,-0.66 -0.80666,-0.130909 -1.6228,-0.1944617 -2.44,-0.19 h -4.31 c -0.46974,0.017649 -0.87411,0.3371037 -1,0.79 l -2.9,12.63 c -0.0553,0.192883 -0.0139,0.400614 0.11123,0.557497 0.12511,0.156883 0.31841,0.243516 0.51877,0.232503 h 2.06 c 0.47209,-0.01119 0.87985,-0.333317 1,-0.79 l 0.75,-3.08 c 0.12094,-0.454677 0.52956,-0.773404 1,-0.78 h 0.59 c 2.0782,0.122721 4.14141,-0.420229 5.89,-1.55 1.34559,-0.921382 2.13537,-2.459567 2.1,-4.09 0.003,-0.6421483 -0.15523,-1.2747787 -0.46,-1.84 m -4.45,4.12 c -0.77261,0.496689 -1.68315,0.73483 -2.6,0.68 h -0.51 c -0.20036,0.01101 -0.39366,-0.07562 -0.51877,-0.232503 -0.12511,-0.156883 -0.16655,-0.364614 -0.11123,-0.557497 l 0.62,-2.68 c 0.12094,-0.4546772 0.52956,-0.7734045 1,-0.78 h 0.68 c 0.62265,-0.040722 1.24391,0.098106 1.79,0.4 0.40459,0.2731675 0.63019,0.7434818 0.59,1.23 0.045,0.763713 -0.30644,1.496775 -0.93,1.94" />
        <path
           style="fill:#336699"
           id="path3017"
           d="m 280.00021,7 c -0.26334,-0.5018103 -0.65718,-0.9232848 -1.14,-1.22 -0.55005,-0.3302029 -1.15725,-0.5540888 -1.79,-0.66 -0.80187,-0.1078679 -1.61139,-0.1480098 -2.42,-0.12 h -4.32 c -0.4709,0.014465 -0.87694,0.3352313 -1,0.79 l -2.91,12.59 c -0.0555,0.190168 -0.0152,0.395458 0.10803,0.550543 0.12327,0.155084 0.31418,0.240645 0.51197,0.229457 h 2.07 c 0.4681,-0.01316 0.87326,-0.329186 1,-0.78 l 0.7,-3.06 c 0.12388,-0.452724 0.53074,-0.770075 1,-0.78 h 0.61 c 2.0706,0.12348 4.12669,-0.415938 5.87,-1.54 1.36178,-0.924114 2.16337,-2.47461 2.13,-4.12 0.0152,-0.651524 -0.12894,-1.2969047 -0.42,-1.88 m -4.45,4.13 c -0.77345,0.494777 -1.68335,0.732752 -2.6,0.68 h -0.53 c -0.1995,0.01464 -0.3935,-0.06946 -0.51919,-0.225079 -0.12569,-0.155615 -0.16709,-0.362967 -0.11081,-0.554921 l 0.63,-2.66 c 0.12388,-0.452724 0.53074,-0.7700746 1,-0.78 h 0.68 c 0.62226,-0.035783 1.24216,0.1027428 1.79,0.4 0.40353,0.2749701 0.6317,0.742722 0.6,1.23 0.0356,0.7618355 -0.31379,1.490622 -0.93,1.94" />
        <path
           style="fill:#1c3664"
           id="path3021"
           d="m 248.84021,16.53 c -0.25772,0.162514 -0.52868,0.303011 -0.81,0.42 -0.3421,0.144655 -0.70865,0.222717 -1.08,0.23 -0.40314,0.02298 -0.80556,-0.05613 -1.17,-0.23 -0.27304,-0.155786 -0.42953,-0.457037 -0.4,-0.77 -0.017,-0.357796 0.0889,-0.71065 0.3,-1 0.23779,-0.271295 0.54059,-0.477749 0.88,-0.6 0.44324,-0.141251 0.89847,-0.241669 1.36,-0.3 0.47,-0.06 1.4,-0.17 1.52,-0.17 0.12,0 0.2,-0.07 0.14,0.25 0,0.14 -0.29,1.24 -0.41,1.74 -0.0683,0.170982 -0.18251,0.319783 -0.33,0.43 z m 3.65,-7.75 c -1.15877,-0.5143761 -2.42477,-0.7408154 -3.69,-0.66 -0.83724,0.00212 -1.67307,0.06899 -2.5,0.2 -0.61,0.09 -0.68,0.11 -1.06,0.19 -0.47865,0.1169589 -0.83857,0.512476 -0.91,1 l -0.25,1 c -0.14,0.66 0.24,0.63 0.4,0.58 0.4025,-0.144288 0.81322,-0.264501 1.23,-0.36 0.63548,-0.155935 1.28588,-0.243102 1.94,-0.26 0.63407,-0.03024 1.26823,0.05793 1.87,0.26 0.38021,0.156142 0.62615,0.529026 0.62,0.94 0.0205,0.09558 0.0205,0.194424 0,0.29 -0.0525,0.118099 -0.17081,0.193052 -0.3,0.19 -1.18,0.07 -2,0.18 -3,0.33 -0.90321,0.113764 -1.78549,0.356223 -2.62,0.72 -0.70989,0.290968 -1.32336,0.776198 -1.77,1.4 -0.40721,0.641556 -0.61272,1.390463 -0.59,2.15 -0.0345,0.758975 0.2739,1.493277 0.84,2 0.60629,0.515611 1.38481,0.783452 2.18,0.75 0.43645,0.0086 0.8725,-0.03162 1.3,-0.12 0.34195,-0.08619 0.67638,-0.199894 1,-0.34 0.29745,-0.129646 0.58204,-0.287007 0.85,-0.47 l 0.78,-0.52 v 0 l -0.08,0.33 v 0 c -0.0485,0.176997 -0.0147,0.366423 0.0919,0.51576 0.10667,0.149337 0.2749,0.242713 0.45806,0.25424 h 2 c 0.41893,-0.06194 0.763,-0.363002 0.88,-0.77 l 1.51,-6.5 c 0.0393,-0.17452 0.0661,-0.351643 0.08,-0.53 0.0102,-0.166512 0.0102,-0.333488 0,-0.5 0.0259,-0.835899 -0.42866,-1.6129412 -1.17,-2 v 0 l -0.09,-0.07 z" />
        <path
           style="fill:#336699"
           id="path3025"
           d="m 297.07022,5.07 h -1.85 c -0.45825,0.00457 -0.86168,0.3031007 -1,0.74 v 0 l -0.12,0.55 -2.54,11.49 -0.11,0.47 v 0 c -0.0485,0.176997 -0.0147,0.366423 0.0919,0.51576 0.10667,0.149337 0.2749,0.242713 0.45806,0.25424 h 1.92 c 0.45456,-0.0062 0.85559,-0.298942 1,-0.73 V 18.3 l 2.77,-12.52 v 0 c 0.0508,-0.1897591 0.009,-0.3923698 -0.11355,-0.5461504 C 297.45443,5.080069 297.26655,4.9933156 297.07022,5" />
        <g
           transform="translate(167)"
           id="Group" />
        <g
           transform="translate(168,9)"
           id="g27">
          <g
             style="fill:#000000"
             id="g29"
             transform="translate(0,1)" />
          <g
             style="fill:#ffffff"
             id="g47" />
        </g>
      </g>
    </g>
  </g>
  <g
     transform="translate(-146.95621,-11.91978)"
     id="layer1" />
</svg>
