<?xml version="1.0" standalone="no"?>
<!DOCTYPE svg PUBLIC "-//W3C//DTD SVG 20010904//EN"
 "http://www.w3.org/TR/2001/REC-SVG-20010904/DTD/svg10.dtd">
<svg version="1.0" xmlns="http://www.w3.org/2000/svg"
 width="700.000000pt" height="700.000000pt" viewBox="0 0 700.000000 700.000000"
 preserveAspectRatio="xMidYMid meet">
<metadata>
Created by potrace 1.11, written by Peter Selinger 2001-2013
</metadata>
<g transform="translate(0.000000,700.000000) scale(0.100000,-0.100000)"
fill="#000000" stroke="none">
<path d="M3358 6332 l-148 -247 105 -3 105 -3 -2 -291 -3 -292 -215 -124
c-118 -68 -240 -137 -270 -154 -30 -17 -59 -34 -65 -38 -5 -5 -37 -23 -70 -40
-33 -18 -67 -39 -76 -46 -8 -8 -18 -14 -22 -14 -3 0 -144 -80 -314 -178 -169
-98 -459 -265 -643 -372 -476 -274 -520 -301 -530 -321 -6 -11 -10 -500 -10
-1286 0 -1197 -1 -1269 -18 -1279 -9 -6 -113 -66 -231 -134 -167 -96 -215
-119 -222 -109 -5 8 -28 47 -51 86 -23 40 -44 73 -47 73 -4 0 -42 -62 -85
-138 -43 -75 -91 -157 -106 -182 -15 -25 -44 -74 -63 -110 l-36 -65 290 -3
c159 -2 289 -1 289 2 0 3 -14 29 -31 58 -18 29 -40 67 -50 85 l-18 32 232 134
231 134 120 -70 c66 -38 135 -78 153 -88 18 -10 119 -69 225 -130 106 -61 213
-123 238 -137 25 -13 50 -28 55 -32 6 -4 30 -18 55 -32 67 -37 1008 -581 1133
-654 59 -35 109 -64 112 -64 2 0 26 -14 52 -30 26 -17 60 -30 77 -30 19 0 77
28 160 76 72 42 147 86 166 96 19 11 107 62 195 113 88 51 177 102 198 114 20
11 52 29 70 40 17 10 259 150 537 311 278 161 524 302 547 315 22 13 58 34 80
47 21 14 45 27 53 31 8 4 33 18 55 32 22 14 47 28 55 32 8 3 32 17 52 30 21
13 44 23 52 23 8 0 66 -30 128 -66 62 -37 131 -77 154 -89 22 -13 58 -34 80
-47 21 -13 51 -30 67 -37 33 -17 33 -19 5 -62 -28 -41 -68 -114 -68 -123 0 -4
234 -3 547 3 l31 1 -115 198 c-122 208 -142 242 -162 281 -12 22 -15 20 -67
-70 -30 -52 -58 -93 -62 -92 -4 1 -84 45 -177 99 -94 53 -192 110 -220 125
l-50 28 -3 1273 c-2 1188 -4 1274 -20 1295 -13 16 -1648 970 -1922 1121 -25
13 -65 37 -90 52 -25 15 -78 46 -117 69 l-73 42 0 289 0 290 100 0 c55 0 100
3 100 6 0 3 -28 54 -62 113 -33 58 -97 168 -140 244 -44 75 -80 137 -81 137
-1 0 -68 -112 -149 -248z m62 -2162 c0 -621 -3 -1130 -6 -1130 -3 0 -89 49
-192 108 -103 60 -207 120 -232 134 -25 14 -85 49 -135 78 -49 29 -111 64
-136 79 -271 153 -1259 727 -1259 731 1 3 47 31 103 62 56 32 192 110 302 174
110 64 220 128 245 142 25 14 214 123 420 242 586 339 772 446 815 470 22 12
44 26 50 31 5 5 13 9 17 9 4 0 8 -508 8 -1130z m196 1121 c5 -5 86 -53 179
-106 199 -114 177 -101 425 -245 107 -62 251 -145 320 -185 69 -40 217 -125
330 -190 113 -65 215 -124 227 -129 13 -6 23 -14 23 -18 0 -5 5 -8 10 -8 6 0
47 -21 91 -47 107 -64 170 -100 256 -148 40 -22 73 -42 73 -45 0 -4 -103 -65
-260 -155 -14 -8 -65 -37 -115 -66 -49 -29 -178 -102 -285 -164 -107 -62 -235
-136 -285 -165 -49 -28 -108 -62 -130 -75 -22 -12 -80 -46 -130 -75 -49 -29
-106 -62 -125 -72 -19 -10 -50 -28 -68 -39 -105 -62 -552 -319 -557 -319 -3 0
-5 509 -5 1130 0 622 4 1130 8 1130 4 0 12 -4 18 -9z m-1901 -1469 c149 -85
365 -210 480 -277 116 -67 230 -133 255 -147 25 -14 144 -83 265 -153 121 -70
238 -138 260 -150 112 -64 341 -198 347 -204 5 -4 -16 -21 -45 -37 -78 -46
-455 -263 -491 -284 -94 -53 -1072 -618 -1131 -653 -38 -23 -90 -52 -114 -65
-25 -14 -73 -42 -108 -63 l-63 -39 0 1136 0 1136 38 -22 c20 -12 159 -92 307
-178z m3925 -938 l0 -1135 -29 20 c-16 12 -31 21 -33 21 -3 0 -99 55 -214 121
-433 252 -586 339 -595 339 -5 0 -9 5 -9 10 0 6 -4 10 -9 10 -5 0 -165 91
-357 202 -192 110 -370 213 -395 227 -205 116 -317 185 -313 192 2 4 17 14 32
22 35 18 82 45 222 127 63 37 399 230 745 430 347 199 647 373 667 386 21 13
39 24 42 24 2 0 57 31 122 70 66 38 120 70 122 70 1 0 2 -511 2 -1136z m-2222
-1842 l-3 -570 -118 69 c-65 38 -122 69 -128 69 -5 0 -9 5 -9 10 0 6 -4 10
-10 10 -5 0 -44 21 -87 46 -43 25 -107 62 -143 82 -36 19 -72 41 -81 48 -8 8
-18 14 -21 14 -4 0 -52 27 -108 60 -56 33 -104 60 -108 60 -3 0 -13 6 -21 14
-9 7 -41 27 -71 43 -30 16 -260 148 -510 293 -250 144 -471 271 -490 282 -19
11 -39 23 -43 28 -7 6 124 87 303 187 36 21 807 465 965 558 50 28 171 98 270
155 99 56 192 111 207 121 15 11 29 19 31 19 2 0 42 22 88 48 l84 49 3 -563
c1 -309 1 -819 0 -1132z m492 1512 c140 -81 275 -158 300 -172 25 -13 50 -27
55 -32 6 -4 30 -19 55 -32 25 -14 115 -66 200 -115 85 -49 229 -133 320 -185
91 -52 206 -119 255 -148 50 -29 108 -62 130 -75 107 -60 325 -187 325 -190 0
-3 -41 -28 -120 -73 -19 -11 -267 -153 -550 -317 -283 -164 -679 -392 -880
-508 -201 -116 -375 -217 -387 -225 l-23 -14 0 1137 0 1137 33 -20 c17 -11
147 -87 287 -168z"/>
</g>
</svg>
