<?xml version="1.0" encoding="UTF-8" standalone="no"?>
<svg
   xmlns:dc="http://purl.org/dc/elements/1.1/"
   xmlns:cc="http://creativecommons.org/ns#"
   xmlns:rdf="http://www.w3.org/1999/02/22-rdf-syntax-ns#"
   xmlns:svg="http://www.w3.org/2000/svg"
   xmlns="http://www.w3.org/2000/svg"
   xmlns:xlink="http://www.w3.org/1999/xlink"
   id="svg2"
   version="1.1"
   viewBox="0 0 176.12076 26.314739"
   height="26.314739"
   width="176.12076">
  <metadata
     id="metadata134">
    <rdf:RDF>
      <cc:Work
         rdf:about="">
        <dc:format>image/svg+xml</dc:format>
        <dc:type
           rdf:resource="http://purl.org/dc/dcmitype/StillImage" />
        <dc:title>Artboard</dc:title>
      </cc:Work>
    </rdf:RDF>
  </metadata>
  <!-- Generator: Sketch 41.2 (35397) - http://www.bohemiancoding.com/sketch -->
  <title
     id="title4">Artboard</title>
  <desc
     id="desc6">Created with Sketch.</desc>
  <defs
     id="defs8">
    <linearGradient
       id="linearGradient-1"
       y2="0.37952936"
       x2="0.97679883"
       y1="0.68107134"
       x1="0.010927957">
      <stop
         id="stop11"
         offset="0%"
         stop-color="#FFDD55" />
      <stop
         id="stop13"
         offset="100%"
         stop-opacity="0"
         stop-color="#FFDD55" />
    </linearGradient>
    <radialGradient
       gradientUnits="userSpaceOnUse"
       r="264.57971"
       cy="57.021"
       cx="57.388199"
       id="SVGID_1_">
      <stop
         id="stop3272"
         style="stop-color:#9DD5F6"
         offset="0" />
      <stop
         id="stop3274"
         style="stop-color:#98D3F5"
         offset="0.0711" />
      <stop
         id="stop3276"
         style="stop-color:#89CEF3"
         offset="0.1575" />
      <stop
         id="stop3278"
         style="stop-color:#70C6EF"
         offset="0.2516" />
      <stop
         id="stop3280"
         style="stop-color:#4EBBEA"
         offset="0.3514" />
      <stop
         id="stop3282"
         style="stop-color:#23ADE3"
         offset="0.4546" />
      <stop
         id="stop3284"
         style="stop-color:#0DA6E0"
         offset="0.5" />
      <stop
         id="stop3286"
         style="stop-color:#2E77BC"
         offset="1" />
    </radialGradient>
    <radialGradient
       r="264.57971"
       cy="57.021"
       cx="57.388199"
       gradientTransform="matrix(0.09299612,0,0,0.09299612,149.03499,-0.7065844)"
       gradientUnits="userSpaceOnUse"
       id="radialGradient3396"
       xlink:href="#SVGID_1_" />
  </defs>
  <g
     transform="translate(-2.04022,-7.2089846)"
     style="fill:none;stroke:none"
     id="Page-1">
    <g
       id="Artboard">
      <g
         transform="translate(-82,7)"
         id="icon-group--payment">
        <g
           transform="translate(167)"
           id="Group">
          <circle
             style="fill:#e30613"
             r="12.35"
             cy="13.12"
             cx="12.62021"
             id="Oval" />
          <path
             style="fill:#f7a600"
             id="Shape"
             d="m 29.20023,0.77 c -3.069382,0.005496 -6.025989,1.1574674 -8.29,3.23 -0.447634,0.4060313 -0.865386,0.8438349 -1.25,1.31 h 2.5 c 0.341175,0.4160004 0.65516,0.8535756 0.94,1.31 h -4.38 c -0.262863,0.421952 -0.499963,0.8594174 -0.71,1.31 h 5.8 c 0.198049,0.4264462 0.371664,0.8638203 0.52,1.31 h -6.85 c -0.14423,0.4296439 -0.264416,0.866988 -0.36,1.31 h 7.57 c 0.467336,2.172942 0.343013,4.431481 -0.36,6.54 h -6.85 c 0.148012,0.446298 0.321634,0.88369 0.52,1.31 h 5.8 c -0.210177,0.450512 -0.447272,0.88797 -0.71,1.31 h -4.37 c 0.284746,0.456487 0.598735,0.894068 0.94,1.31 h 2.49 c -0.384061,0.466656 -0.801849,0.904498 -1.25,1.31 4.097796,3.660643 10.121262,4.173698 14.779133,1.258827 C 40.337235,20.673957 42.509116,15.0323 41.008276,9.7464965 39.507435,4.4606935 34.694882,0.80218247 29.20023,0.77 Z" />
        </g>
        <g
           transform="translate(168,9)"
           id="g27">
          <g
             style="fill:#000000"
             id="g29"
             transform="translate(0,1)">
            <path
               id="path31"
               d="m 8.7402,4.48 h -0.3 c -0.76,0 -1.14,0.26 -1.14,0.78 C 7.285725,5.3948219 7.330184,5.5293259 7.4221569,5.6289629 7.5141294,5.7285998 7.6446527,5.7836598 7.7802,5.78 8.3983468,5.6941489 8.8298586,5.1234471 8.74401,4.5053 Z m 1,2.27 h -1.11 V 6.22 C 8.2882088,6.6426421 7.7628338,6.873658 7.2202,6.84 6.888731,6.8341349 6.5731681,6.6968344 6.3429316,6.4583031 6.112695,6.2197718 5.9866446,5.8995489 5.99251,5.56808 v 0 C 5.99321,5.52862 5.99577,5.48926 6.0002,5.45 c 0,-1.24 0.87,-2 2.35,-2 0.1831641,-0.01114 0.3668359,-0.01114 0.55,0 0.031234,-0.1072945 0.048048,-0.2182689 0.05,-0.33 0,-0.34 -0.23,-0.46 -0.86,-0.46 -0.4826745,-8.507e-4 -0.9622725,0.076831 -1.42,0.23 l 0.19,-1.15 c 0.5164659,-0.1709774 1.0560268,-0.2620283 1.6,-0.27 1.15,0 1.76,0.52 1.76,1.49 -0.0109,0.3356658 -0.04768,0.6699907 -0.11,1 -0.12,0.82 -0.37,2.4 -0.4,2.79 z" />
            <polygon
               id="polygon33"
               points="1.1,0.48 3.03,0.48 3.15,3.99 4.33,0.48 6.47,0.48 5.43,6.75 4.09,6.75 4.86,1.93 3.15,6.75 2.23,6.75 2.12,1.96 1.31,6.75 0.06,6.75 " />
            <path
               id="path35"
               d="m 29.8602,4.48 h -0.3 c -0.76,0 -1.14,0.26 -1.14,0.78 -0.01448,0.1348219 0.02998,0.2693259 0.121957,0.3689629 0.09197,0.099637 0.222496,0.1546969 0.358043,0.1510371 0.618147,-0.085851 1.049659,-0.6565529 0.96381,-1.2747 z m 1,2.27 h -1.14 V 6.22 C 29.378209,6.6426421 28.852834,6.873658 28.3102,6.84 27.978731,6.8341349 27.663168,6.6968344 27.432932,6.4583031 27.202695,6.2197718 27.076645,5.8995489 27.08251,5.56808 v 0 c 7e-4,-0.03946 0.0033,-0.07882 0.0077,-0.11808 0,-1.24 0.87,-2 2.35,-2 0.183163,-0.011165 0.366837,-0.011165 0.55,0 0.03135,-0.1072695 0.04816,-0.2182592 0.05,-0.33 0,-0.34 -0.23,-0.46 -0.86,-0.46 -0.48266,-6.745e-4 -0.96223,0.077002 -1.42,0.23 l 0.19,-1.15 c 0.516466,-0.1709774 1.056027,-0.2620283 1.6,-0.27 1.15,0 1.76,0.52 1.76,1.49 -0.01078,0.3356745 -0.04755,0.6700088 -0.11,1 -0.08,0.82 -0.33,2.4 -0.36,2.79 h 0.02 v 0 z" />
            <path
               id="path37"
               d="m 15.67023,6.67 c -0.322177,0.1083254 -0.660108,0.1623943 -1,0.16 C 14.372587,6.8501382 14.081495,6.7363364 13.876432,6.5196658 13.671369,6.3029953 13.573751,6.006085 13.61023,5.71 c 0.03338,-0.4564602 0.09349,-0.9105719 0.18,-1.36 l 0.58,-3.48 h 1.33 l -0.16,0.77 h 0.88 l -0.18,1.22 h -0.82 c -0.15,1 -0.38,2.18 -0.38,2.34 0.01828,0.2288016 0.218568,0.3994689 0.44737,0.3812 v 0 L 15.5002,5.58 c 0.119155,0.020141 0.240845,0.020141 0.36,0 z" />
            <path
               id="path39"
               d="m 19.76022,6.63 c -0.443227,0.1397043 -0.905277,0.2105294 -1.37,0.21 C 17.764433,6.9321389 17.131943,6.7228152 16.684674,6.275546 16.237405,5.8282767 16.028081,5.1957875 16.12022,4.57 c 0,-1.74 1,-3 2.33,-3 0.493315,-0.030835 0.975624,0.1545623 1.321269,0.5078888 0.345646,0.3533265 0.520399,0.839593 0.478731,1.3321112 -0.0052,0.4214264 -0.05887,0.8408548 -0.16,1.25 h -2.67 c -0.09,0.74 0.38,1 1.16,1 0.481706,0.00102 0.957229,-0.108455 1.39,-0.32 z m -0.75,-3 C 19.086209,3.4273689 19.062728,3.2008248 18.946797,3.0180855 18.830866,2.8353463 18.635915,2.7175841 18.42022,2.7 c -0.472431,0.045262 -0.837017,0.4355839 -0.85,0.91 h 1.47 z" />
            <path
               id="path41"
               d="m 10.51022,3.26 c -0.0055,0.6387535 0.396744,1.2099561 1,1.42 0.54,0.26 0.63,0.33 0.63,0.56 0,0.23 -0.24,0.46 -0.77,0.46 -0.40819,-0.00126 -0.813465,-0.068809 -1.2,-0.2 l -0.18,1.18 c 0.459443,0.1030853 0.929147,0.1534108 1.4,0.15 1.41,0 2.07,-0.54 2.07,-1.7 0.04593,-0.6350482 -0.345483,-1.2201114 -0.95,-1.42 -0.56,-0.26 -0.63,-0.32 -0.63,-0.55 0,-0.23 0.22,-0.42 0.66,-0.42 0.334764,0.00392 0.668871,0.03065 1,0.08 l 0.19,-1.18 c -0.390751,-0.058862 -0.784916,-0.092266 -1.18,-0.1 -1.52001,0 -2.04,0.78 -2.04,1.72 z" />
            <path
               id="path43"
               d="m 26.28021,1.67 c 0.421913,0.01267 0.834147,0.1294693 1.2,0.34 l 0.22,-1.36 c -0.449701,-0.27303773 -0.949529,-0.45324804 -1.47,-0.53 -0.879837,0.008457 -1.699023,0.44984536 -2.19,1.18 -0.78,-0.26 -1.1,0.26 -1.49,0.78 l -0.35,0.08 c 0.01679,-0.1695857 0.01679,-0.3404143 0,-0.51 h -1.23 c -0.17,1.58 -0.47,3.17 -0.7,4.75 l -0.06,0.34 h 1.34 c 0.22,-1.45 0.35,-2.39 0.42,-3 l 0.51,-0.28 c 0.08,-0.28 0.31,-0.38 0.79,-0.36 -0.06266,0.3297467 -0.09612,0.6643756 -0.1,1 0,1.67 0.9,2.7 2.34,2.7 0.399886,-0.00365 0.797212,-0.064261 1.18,-0.18 l 0.24,-1.43 c -0.350467,0.1925924 -0.740503,0.3020761 -1.14,0.32 C 25.421621,5.4893856 25.079177,5.3130346 24.848329,5.024951 24.617481,4.7368674 24.52,4.3642222 24.58021,4 c 10e-6,-1.36 0.7,-2.33 1.7,-2.33 z" />
            <path
               id="path45"
               d="m 37.63022,0.48 -0.3,1.81 c -0.269212,-0.4656054 -0.745073,-0.7741716 -1.28,-0.83 -0.756233,0.080706 -1.408128,0.5677096 -1.7,1.27 -0.385238,-0.083004 -0.765778,-0.186484 -1.14,-0.31 v 0 c 0.03296,-0.2554922 0.05298,-0.5124865 0.06,-0.77 h -1.23 c -0.17,1.58 -0.47,3.17 -0.7,4.75 l -0.06,0.34 h 1.34 c 0.18,-1.1733333 0.32,-2.15 0.42,-2.93 0.265168,-0.3962117 0.680508,-0.6670859 1.15,-0.75 -0.21585,0.5234289 -0.327928,1.0838155 -0.33,1.65 0,1.27 0.64,2.11 1.62,2.11 0.476653,0.00998 0.932324,-0.1958117 1.24,-0.56 l -0.06,0.47 h 1.27 l 1,-6.26 h -1.32 z m -1.68,5.09 c -0.46,0 -0.69,-0.34 -0.69,-1 0,-1 0.43,-1.71 1,-1.71 0.57,0 0.71,0.35 0.71,1 0.05,1 -0.39,1.71 -1.02,1.71 z" />
          </g>
          <g
             style="fill:#ffffff"
             id="g47">
            <polygon
               id="polygon49"
               points="1.49,1.11 3.42,1.11 3.47,4.99 4.77,1.11 6.86,1.11 5.82,7.38 4.48,7.38 5.25,2.56 3.53,7.38 2.62,7.38 2.5,2.59 1.7,7.38 0.44,7.38 " />
            <path
               id="path51"
               d="m 9.12021,5.11 h -0.3 c -0.76,0 -1.14,0.26 -1.14,0.78 C 7.665735,6.0248219 7.710194,6.159326 7.8021669,6.2589629 7.8941394,6.3585998 8.0246627,6.4136598 8.16021,6.41 8.7783568,6.3241489 9.2098686,5.7534471 9.12402,5.1353 Z m 1,2.27 h -1.11 V 6.85 C 8.6682188,7.2726421 8.1428438,7.503658 7.60021,7.47 6.9106718,7.4364314 6.3789029,6.8502383 6.41247,6.1607 v 0 C 6.41394,6.130387 6.41652,6.100157 6.42022,6.07001 c 0,-1.24 0.87,-2 2.35,-2 0.1831641,-0.01114 0.3668359,-0.01114 0.55,0 0.031347,-0.1072695 0.048163,-0.2182592 0.05,-0.33 0,-0.34 -0.23,-0.46 -0.86,-0.46 -0.4826184,-1.494e-4 -0.9621043,0.077514 -1.42,0.23 l 0.19,-1.14 c 0.516428,-0.1711301 1.0560126,-0.262185 1.6,-0.27 1.15,0 1.76,0.52 1.76,1.49 -0.01102,0.335657 -0.0478,0.6699725 -0.11,1 -0.11,0.82 -0.4,2.41 -0.43,2.79 h 0.02 z" />
            <path
               id="path53"
               d="m 28.08022,1.28 -0.22,1.36 c -0.365853,-0.2105307 -0.778087,-0.3273303 -1.2,-0.34 -1,0 -1.7,1 -1.7,2.35 -0.06732,0.3739303 0.03232,0.7585957 0.272702,1.0528255 0.240383,0.2942298 0.597454,0.4685726 0.977298,0.4771745 0.399554,-0.017568 0.789669,-0.1270739 1.14,-0.32 l -0.24,1.43 c -0.385907,0.1170904 -0.786727,0.1777187 -1.19,0.18 -1.44,0 -2.34,-1 -2.34,-2.7 0,-2.24 1.24,-3.81 3,-3.81 0.514289,0.0227224 1.021212,0.130866 1.5,0.32 z" />
            <path
               id="path55"
               d="m 30.25021,5.11 h -0.3 c -0.76,0 -1.14,0.26 -1.14,0.78 -0.01448,0.1348219 0.02998,0.269326 0.121957,0.3689629 0.09197,0.099637 0.222496,0.1546969 0.358043,0.1510371 0.618147,-0.085851 1.049659,-0.6565529 0.96381,-1.2747 z m 1,2.27 h -1.11 V 6.85 c -0.341991,0.4226421 -0.867366,0.653658 -1.41,0.62 C 28.398741,7.4641349 28.083178,7.3268344 27.852942,7.0883031 27.622705,6.8497718 27.496655,6.5295489 27.50252,6.19808 v 0 c 7e-4,-0.03946 0.0033,-0.07882 0.0077,-0.11808 0,-1.24 0.87,-2 2.35,-2 0.183164,-0.01114 0.366836,-0.01114 0.55,0 0.03123,-0.1072945 0.04805,-0.2182689 0.05,-0.33 0,-0.34 -0.23,-0.46 -0.86,-0.46 -0.482618,-1.493e-4 -0.962104,0.077514 -1.42,0.23 l 0.19,-1.14 c 0.516428,-0.1711301 1.056013,-0.262185 1.6,-0.27 1.15,0 1.76,0.52 1.76,1.49 -0.01069,0.335681 -0.04746,0.6700224 -0.11,1 -0.11,0.81 -0.36,2.4 -0.4,2.78 h 0.03 v 0 z" />
            <path
               id="path57"
               d="m 16.06023,7.3 c -0.321601,0.1117233 -0.659546,0.169174 -1,0.17 C 14.762587,7.4901382 14.471495,7.3763364 14.266432,7.1596658 14.061369,6.9429953 13.963751,6.646085 14.00023,6.35 14.047348,5.8961179 14.120805,5.4453579 14.22023,5 l 0.58,-3.48 h 1.33 l -0.16,0.77 h 0.68 l -0.18,1.22 h -0.69 c -0.15,1 -0.38,2.18 -0.38,2.34 0.01828,0.2288016 0.218568,0.3994689 0.44737,0.3812 v 0 L 15.8602,6.23 c 0.119155,0.020141 0.240845,0.020141 0.36,0 z" />
            <path
               id="path59"
               d="m 20.14023,7.26 c -0.443299,0.1393971 -0.905301,0.2102149 -1.37,0.21 C 18.144442,7.5621389 17.511953,7.3528152 17.064684,6.905546 16.617415,6.4582767 16.408091,5.8257875 16.50023,5.2 c 0,-1.74 1,-3 2.33,-3 0.493315,-0.030835 0.975624,0.1545623 1.321269,0.5078888 0.345646,0.3533265 0.520399,0.839593 0.478731,1.3321112 -0.0051,0.4214328 -0.05878,0.8408718 -0.16,1.25 h -2.65 c -0.09,0.74 0.38,1 1.16,1 0.481706,0.00102 0.957229,-0.108455 1.39,-0.32 z m -0.75,-3 C 19.459468,4.0550338 19.428563,3.8294596 19.306749,3.6506681 19.184935,3.4718767 18.986316,3.3605695 18.77023,3.35 c -0.472431,0.045262 -0.837017,0.4355839 -0.85,0.91 z" />
            <path
               id="path61"
               d="m 10.90021,3.89 c -0.0055,0.6387535 0.396744,1.2099561 1,1.42 0.54,0.26 0.63,0.33 0.63,0.56 0,0.23 -0.24,0.46 -0.77,0.46 -0.40819,-0.00126 -0.813465,-0.068809 -1.2,-0.2 l -0.14,1.18 c 0.459513,0.1026571 0.929169,0.1529773 1.4,0.15 1.42,0 2.07,-0.54 2.07,-1.7 0.04593,-0.6350481 -0.345483,-1.2201114 -0.95,-1.42 -0.56,-0.26 -0.63,-0.32 -0.63,-0.55 0,-0.23 0.22,-0.42 0.66,-0.42 0.334761,0.00399 0.668864,0.030714 1,0.08 l 0.19,-1.18 c -0.390748,-0.05889 -0.784914,-0.092293 -1.18,-0.1 -1.55998,0 -2.08,0.78 -2.08,1.72 z" />
            <path
               id="path63"
               d="m 38.32024,7.38 h -1.27 l 0.06,-0.47 c -0.307676,0.3641883 -0.763347,0.5699755 -1.24,0.56 -1,0 -1.62,-0.84 -1.62,-2.11 0,-1.69 1,-3.12 2.18,-3.12 0.51661,-0.00411 0.999464,0.2561768 1.28,0.69 l 0.3,-1.81 h 1.32 z m -2,-1.18 c 0.62,0 1.06,-0.71 1.06,-1.72 0,-0.65 -0.25,-1 -0.71,-1 -0.700315,0.2563892 -1.119932,0.9739342 -1,1.71 -0.02,0.67 0.21,1.01 0.67,1.01 z" />
            <path
               id="path65"
               d="m 32.42023,2.28 c -0.17,1.58 -0.47,3.17 -0.7,4.75 l -0.06,0.34 h 1.34 c 0.48,-3.12 0.6,-3.72 1.35,-3.65 0.09125,-0.5170483 0.263356,-1.0165002 0.51,-1.48 -0.562892,-0.062096 -1.095438,0.2681643 -1.29,0.8 0.04826,-0.2539627 0.07502,-0.5115413 0.08,-0.77 h -1.23 v 0.01 z" />
            <path
               id="path67"
               d="m 21.42023,2.28 c -0.17,1.58 -0.47,3.17 -0.7,4.75 l -0.06,0.34 h 1.34 c 0.48,-3.12 0.59,-3.72 1.35,-3.65 0.09125,-0.5170483 0.263356,-1.0165002 0.51,-1.48 -0.562892,-0.062096 -1.095438,0.2681643 -1.29,0.8 0.04798,-0.2540027 0.07474,-0.5115584 0.08,-0.77 h -1.23 v 0.01 z" />
            <path
               id="path69"
               d="m 38.91022,7 c 0,-0.2209139 0.179086,-0.4 0.4,-0.4 0.220914,0 0.4,0.1790861 0.4,0.4 0,0.2209139 -0.179086,0.4 -0.4,0.4 v 0 c -0.220914,0 -0.4,-0.1790861 -0.4,-0.4 z m 0.4,0.3 c -0.0055,0.1582129 -0.136715,0.2828551 -0.294998,0.2801269 -0.158284,-0.00273 -0.28517,-0.13182 -0.28517,-0.2901269 0,-0.1583069 0.126886,-0.2873987 0.28517,-0.2901269 0.158283,-0.00273 0.289542,0.121914 0.294998,0.2801269 z m -0.05,-0.13 h -0.08 V 6.8 h 0.15 c 0.02938,-0.00861 0.06062,-0.00861 0.09,0 0.01285,0.028624 0.01285,0.061376 0,0.09 0.02198,0.033373 0.02198,0.076627 0,0.11 v 0.15 h -0.09 L 39.31022,7 h -0.06 v 0.14 z" />
          </g>
        </g>
        <path
           style="fill:#004f8b"
           id="Fill-1"
           d="m 101.34021,3 -4.82,13 -0.52,-2.64 c -1.202432,-2.916987 -3.510538,-5.2394738 -6.42,-6.46 l 4,15.17 h 5.21 l 7.76,-19 h -5.22" />
        <polyline
           style="fill:#004f8b"
           points="105.48021 22.09 108.56021 3 113.48021 3 110.42021 22.09 105.49021 22.09"
           id="Fill-2" />
        <path
           style="fill:#004f8b"
           id="Fill-3"
           d="m 128.2702,3.49 c -1.40804,-0.536493 -2.90323,-0.8077284 -4.41,-0.8 -4.87,0 -8.3,2.59 -8.33,6.3 0,2.74 2.45,4.27 4.31,5.18 1.86,0.91 2.58,1.52 2.58,2.36 0,1.28 -1.53,1.86 -2.95,1.86 -1.60495,0.04866 -3.19757,-0.294576 -4.64,-1 l -0.63,-0.3 -0.69,4.27 c 1.75063,0.676334 3.61333,1.015624 5.49,1 5.17,0 8.54,-2.56 8.58,-6.52 0,-2.17 -1.29,-3.82 -4.14,-5.18 -1.72,-0.89 -2.78,-1.47 -2.77,-2.37 0.01,-0.9 0.89,-1.64 2.82,-1.64 1.26863,-0.029961 2.52834,0.2192508 3.69,0.73 l 0.44,0.22 0.67,-4.13" />
        <path
           style="fill:#004f8b"
           id="Fill-4"
           d="m 134.82024,15.33 c 0.41,-1.1 2,-5.33 2,-5.33 0,0 0.4,-1.1 0.65,-1.82 l 0.33,1.65 1.14,5.51 h -4.12 z m 6.08,-12.33 h -3.81 c -1.12296,-0.1381931 -2.1927,0.5169226 -2.58,1.58 l -7.31,17.52 h 5.22 c 0,0 0.84,-2.35 1,-2.87 h 6.31 c 0.15,0.66 0.6,2.86 0.6,2.86 h 4.57 l -4,-19.09 z" />
        <path
           style="fill:#004f8b"
           id="Fill-5"
           d="m 92.05022,3 h -7.94 l -0.07,0.39 c 5.46,1.38 9.94,4.35 12,10 l -1.76,-8.76 C 94.061086,3.5976421 93.100385,2.8954254 92.05022,3" />
      </g>
    </g>
  </g>
  <g
     transform="translate(-2.04022,-7.2089846)"
     id="layer1" />
  <path
     id="path3288"
     d="m 175.96518,0 h -26.21979 v 26.314739 h 26.21979 v -8.684535 c 0.10416,-0.150562 0.15558,-0.343158 0.15558,-0.578623 0,-0.269502 -0.0514,-0.43643 -0.15558,-0.57704"
     style="fill:url(#radialGradient3396)" />
  <path
     id="path3298"
     d="m 152.10879,11.386816 -0.50441,-1.229129 -0.50153,1.229129 m 12.11805,-0.489438 c -0.10127,0.06147 -0.22105,0.06352 -0.36454,0.06352 h -0.89528 v -0.684823 h 0.90746 c 0.12843,0 0.26243,0.0058 0.34947,0.05561 0.0956,0.04492 0.15475,0.140517 0.15475,0.272572 0,0.134751 -0.0563,0.243185 -0.15186,0.293124 z m 6.38679,0.489438 -0.50999,-1.229129 -0.5072,1.229129 z m -11.90537,1.330403 h -0.7555 l -0.003,-2.414738 -1.06862,2.414738 h -0.64706 l -1.07141,-2.416876 v 2.416876 h -1.49892 l -0.28317,-0.687707 h -1.53443 l -0.28606,0.687707 h -0.80042 l 1.31971,-3.0831926 h 1.09494 l 1.2534,2.9191466 V 9.6340264 h 1.20281 l 0.96446,2.0915746 0.88598,-2.0915746 h 1.22699 v 3.0831926 z m 3.01112,0 h -2.46188 V 9.6340264 h 2.46188 v 0.6420446 h -1.72489 v 0.555745 h 1.68351 v 0.632001 h -1.68351 v 0.615727 h 1.72489 z m 3.47118,-2.252831 c 0,0.491577 -0.32809,0.74555 -0.51929,0.821806 0.16125,0.06138 0.29898,0.169812 0.36454,0.259646 0.10406,0.15335 0.12201,0.290334 0.12201,0.565695 v 0.605684 h -0.74332 l -0.003,-0.388817 c 0,-0.185527 0.0178,-0.452333 -0.11634,-0.600662 -0.10768,-0.108433 -0.27182,-0.131961 -0.53714,-0.131961 h -0.79112 v 1.12144 h -0.7369 V 9.6340264 h 1.69504 c 0.37663,0 0.65413,0.01 0.89239,0.147677 0.23314,0.137727 0.37292,0.3387846 0.37292,0.6826846 z m 1.17938,2.252831 h -0.75197 V 9.6340264 h 0.75197 z m 8.72378,0 h -1.04435 l -1.3969,-2.314115 v 2.314115 h -1.50086 l -0.2868,-0.687707 h -1.5309 l -0.27825,0.687707 h -0.86235 c -0.35822,0 -0.81176,-0.07923 -1.06862,-0.341017 -0.25899,-0.261784 -0.39374,-0.616378 -0.39374,-1.177052 0,-0.457262 0.0805,-0.875279 0.39728,-1.2056006 0.23825,-0.246068 0.61135,-0.359523 1.1192,-0.359523 h 0.71347 V 10.29467 h -0.6985 c -0.26894,0 -0.4208,0.03999 -0.56708,0.182644 -0.12564,0.129823 -0.21185,0.37524 -0.21185,0.698401 0,0.330322 0.0657,0.568485 0.20264,0.724068 0.11345,0.122011 0.31963,0.159023 0.51362,0.159023 h 0.33097 l 1.03867,-2.4246876 h 1.10424 l 1.24773,2.9162656 V 9.6341184 h 1.12209 l 1.29543,2.1472806 V 9.6341184 h 0.75486 z m -24.34239,0.605591 h 1.25917 l 0.28392,-0.684824 h 0.63562 l 0.28318,0.684824 h 2.47751 v -0.523569 l 0.22114,0.5258 h 1.28614 l 0.22114,-0.533611 v 0.53138 h 6.15709 l -0.003,-1.124138 h 0.11913 c 0.0834,0.0029 0.10778,0.0106 0.10778,0.148329 v 0.975809 h 3.18446 v -0.261692 c 0.25686,0.137635 0.65637,0.261692 1.18208,0.261692 h 1.3397 l 0.28671,-0.684824 h 0.63563 l 0.28038,0.684824 h 2.58167 v -0.650508 l 0.39095,0.650508 h 2.06879 V 9.0226694 h -2.0474 v 0.507852 l -0.28671,-0.507852 h -2.10087 v 0.507852 l -0.26327,-0.507852 h -2.83778 c -0.47503,0 -0.89258,0.06631 -1.22988,0.251089 v -0.251089 h -1.95831 v 0.251089 c -0.21463,-0.190456 -0.5071,-0.251089 -0.83231,-0.251089 h -7.15447 l -0.48005,1.1106526 -0.49297,-1.1106526 h -2.25348 v 0.507852 l -0.24756,-0.507852 h -1.92186 l -0.89248,2.0445196 v 2.255621 z"
     style="fill:#ffffff" />
  <path
     id="path3300"
     d="m 175.96518,15.59703 h -1.34314 c -0.1341,0 -0.22319,0.005 -0.29824,0.0557 -0.0777,0.04994 -0.10769,0.124057 -0.10769,0.221889 0,0.116338 0.0657,0.195478 0.16116,0.2297 0.0777,0.02706 0.16126,0.03497 0.28401,0.03497 l 0.39942,0.0107 c 0.40304,0.01 0.67208,0.07923 0.83613,0.248207 0.0298,0.02353 0.0478,0.04994 0.0684,0.07635 m 0,1.155664 c -0.17902,0.261784 -0.52785,0.394488 -1.00008,0.394488 h -1.42321 v -0.6613 h 1.41745 c 0.14061,0 0.23899,-0.01851 0.29823,-0.07635 0.0513,-0.04771 0.0871,-0.116988 0.0871,-0.201149 0,-0.08983 -0.0358,-0.161162 -0.09,-0.203941 -0.0535,-0.04706 -0.13131,-0.06845 -0.25964,-0.06845 -0.69199,-0.02353 -1.55527,0.02139 -1.55527,-0.954512 0,-0.447311 0.28401,-0.91815 1.05736,-0.91815 h 1.46795 v -0.613589 h -1.36389 c -0.4116,0 -0.71058,0.09858 -0.92233,0.251834 v -0.251834 h -2.01736 c -0.32261,0 -0.70129,0.07998 -0.8804,0.251834 v -0.251834 h -3.60248 v 0.251834 c -0.28671,-0.206824 -0.77048,-0.251834 -0.99376,-0.251834 h -2.37624 v 0.251834 c -0.22681,-0.219657 -0.73123,-0.251834 -1.03867,-0.251834 h -2.65941 l -0.60857,0.658599 -0.56997,-0.658599 h -3.97261 v 4.303116 h 3.89784 l 0.62707,-0.669012 0.59072,0.669012 2.40264,0.0022 v -1.012264 h 0.23621 c 0.31879,0.0049 0.69478,-0.0079 1.02649,-0.151305 v 1.161337 h 1.98175 v -1.121535 h 0.0956 c 0.12201,0 0.13401,0.005 0.13401,0.126941 v 0.994501 h 6.0202 c 0.38221,0 0.78172,-0.09783 1.00296,-0.27536 v 0.27536 h 1.90958 c 0.39737,0 0.78545,-0.0557 1.08071,-0.19836 v -0.80158 z m -2.9397,-1.232013 c 0.14349,0.148515 0.2204,0.335994 0.2204,0.65339 0,0.663434 -0.41448,0.973111 -1.15771,0.973111 h -1.43539 v -0.6613 h 1.42963 c 0.13977,0 0.2389,-0.01851 0.30103,-0.07635 0.0507,-0.04771 0.087,-0.116988 0.087,-0.201149 0,-0.08983 -0.0393,-0.161162 -0.0899,-0.203941 -0.0564,-0.04706 -0.1341,-0.06845 -0.26243,-0.06845 -0.6892,-0.02353 -1.55229,0.02139 -1.55229,-0.954512 0,-0.447311 0.28103,-0.91815 1.05364,-0.91815 h 1.47743 v 0.656366 h -1.35188 c -0.13401,0 -0.22115,0.005 -0.29527,0.0557 -0.0807,0.04994 -0.11066,0.124057 -0.11066,0.221888 0,0.116339 0.0685,0.195478 0.16125,0.229701 0.0778,0.02706 0.16126,0.03497 0.2868,0.03497 l 0.39673,0.0107 c 0.40006,0.0098 0.67468,0.07895 0.84161,0.24802 z m -6.64997,-0.190457 c -0.0986,0.0585 -0.22049,0.06352 -0.36389,0.06352 h -0.89527 v -0.692635 h 0.90745 c 0.13122,0 0.26253,0.0028 0.35171,0.0557 0.0955,0.04994 0.15261,0.145447 0.15261,0.277408 0,0.131961 -0.0571,0.238256 -0.15261,0.296006 z m 0.44508,0.383796 c 0.16405,0.06054 0.29815,0.169067 0.36101,0.258901 0.10407,0.15056 0.11913,0.291077 0.12211,0.562905 v 0.611356 h -0.73988 v -0.385839 c 0,-0.185529 0.0179,-0.460239 -0.11913,-0.603638 -0.10769,-0.11048 -0.27182,-0.136891 -0.54068,-0.136891 h -0.78758 v 1.126368 h -0.74053 v -3.083936 h 1.70146 c 0.3731,0 0.64483,0.01646 0.88672,0.145538 0.23258,0.140518 0.37886,0.33302 0.37886,0.684824 -9e-5,0.492228 -0.32837,0.743411 -0.52236,0.820412 z m 0.93099,-1.650774 h 2.45965 v 0.637767 h -1.72573 v 0.560673 h 1.6836 v 0.629212 h -1.6836 v 0.61359 l 1.72573,0.0029 v 0.639906 h -2.45965 v -3.083936 z m -4.97223,1.423212 h -0.95237 v -0.785352 h 0.96093 c 0.26606,0 0.45075,0.108433 0.45075,0.378122 0,0.266713 -0.17613,0.40723 -0.45931,0.40723 z m -1.68639,1.38025 -1.13148,-1.256193 1.13148,-1.216296 z m -2.92203,-0.36222 h -1.81194 v -0.61359 h 1.61795 v -0.629212 h -1.61795 v -0.560673 h 1.84765 l 0.80609,0.898714 z m 5.85894,-1.42526 c 0,0.85668 -0.63916,1.033559 -1.28334,1.033559 h -0.91955 v 1.034395 h -1.43242 l -0.90745,-1.020912 -0.94308,1.020912 h -2.91915 v -3.083936 h 2.96407 l 0.90671,1.010867 0.9374,-1.010867 h 2.35485 c 0.58485,0 1.24196,0.161906 1.24196,1.015982 z"
     style="fill:#ffffff" />
</svg>
